<?xml version="1.0" encoding="utf-8"?>
<!-- Generator: Adobe Illustrator 15.1.0, SVG Export Plug-In . SVG Version: 6.00 Build 0)  -->
<!DOCTYPE svg PUBLIC "-//W3C//DTD SVG 1.1//EN" "http://www.w3.org/Graphics/SVG/1.1/DTD/svg11.dtd">
<svg version="1.1" id="Layer_1" xmlns="http://www.w3.org/2000/svg" xmlns:xlink="http://www.w3.org/1999/xlink" x="0px" y="0px"
	 width="248.333px" height="80.833px" viewBox="0 0 248.333 80.833" enable-background="new 0 0 248.333 80.833"
	 xml:space="preserve">
<path fill-rule="evenodd" clip-rule="evenodd" fill="#21BCCC" d="M233.344,60.9l0.613-2.603h-1.046l0.084-0.343h2.507l-0.078,0.343
	h-1.049l-0.62,2.603H233.344z M237.721,60.9h-0.408l0.598-2.548l-1.224,1.735h-0.256l-0.396-1.735l-0.598,2.548h-0.39l0.697-2.945
	h0.567l0.389,1.636l1.145-1.636h0.568L237.721,60.9z"/>
<path fill-rule="evenodd" clip-rule="evenodd" fill="#21BCCC" d="M92.973,62.287h-5.724l2.843-18.072h5.722L92.973,62.287z
	 M96.387,41.641h-6.049l0.694-4.399h6.049L96.387,41.641z M113.535,62.287h-5.756l1.411-8.965c0.112-0.729,0.205-1.459,0.252-2.18
	c0.054-0.723,0.022-1.26-0.084-1.598c-0.131-0.41-0.371-0.698-0.713-0.883c-0.343-0.179-0.826-0.266-1.445-0.266
	c-0.471,0-0.956,0.087-1.464,0.266c-0.502,0.166-1.056,0.44-1.667,0.812l-2.015,12.813h-5.721l2.843-18.072h5.725l-0.32,1.992
	c1.062-0.781,2.077-1.396,3.03-1.83c0.953-0.441,1.975-0.662,3.059-0.662c1.878,0,3.218,0.58,4.021,1.74
	c0.813,1.17,1.037,2.858,0.695,5.064L113.535,62.287z M133.435,62.287h-5.725l0.296-1.884c-0.411,0.3-0.889,0.623-1.42,0.962
	c-0.527,0.348-0.981,0.604-1.371,0.774c-0.492,0.221-0.971,0.379-1.43,0.487c-0.467,0.107-1.006,0.158-1.632,0.158
	c-2.09,0-3.612-0.851-4.565-2.556c-0.956-1.707-1.203-3.99-0.76-6.843c0.252-1.573,0.672-2.942,1.267-4.098
	c0.602-1.16,1.337-2.175,2.199-3.029c0.791-0.79,1.694-1.4,2.707-1.858c1.018-0.462,2.062-0.687,3.118-0.687
	c0.955,0,1.73,0.095,2.316,0.297c0.585,0.197,1.255,0.508,2.006,0.931l1.208-7.701h5.726L133.435,62.287z M128.494,57.299
	l1.402-8.87c-0.265-0.134-0.617-0.253-1.064-0.343c-0.438-0.092-0.826-0.139-1.15-0.139c-1.376,0-2.479,0.477-3.32,1.42
	c-0.847,0.943-1.395,2.262-1.663,3.955c-0.28,1.781-0.209,3.07,0.219,3.863c0.42,0.796,1.252,1.188,2.481,1.188
	c0.502,0,1.022-0.096,1.57-0.289C127.511,57.891,128.024,57.631,128.494,57.299 M146.121,62.771c-3.471,0-5.996-0.813-7.589-2.446
	c-1.591-1.628-2.151-3.955-1.675-6.969c0.464-2.951,1.691-5.309,3.69-7.064c2-1.763,4.545-2.644,7.644-2.644
	c2.818,0,4.815,0.746,5.998,2.235c1.182,1.496,1.552,3.634,1.116,6.41l-0.321,2.028h-12.549c-0.072,0.837-0.003,1.538,0.221,2.099
	c0.209,0.564,0.549,1.01,0.994,1.346c0.43,0.339,0.971,0.568,1.598,0.713c0.633,0.15,1.34,0.221,2.117,0.221
	c0.657,0,1.327-0.07,1.994-0.221c0.663-0.145,1.28-0.332,1.851-0.568c0.501-0.201,0.971-0.429,1.411-0.662
	c0.43-0.236,0.791-0.445,1.067-0.625h0.604l-0.729,4.652c-0.495,0.186-0.956,0.355-1.37,0.508c-0.408,0.151-0.966,0.313-1.663,0.467
	c-0.647,0.17-1.308,0.295-1.98,0.387C147.877,62.728,147.061,62.771,146.121,62.771 M149.877,50.922
	c0.158-1.188,0.018-2.094-0.411-2.722c-0.427-0.62-1.196-0.931-2.286-0.931c-1.112,0-2.025,0.331-2.76,0.98
	c-0.735,0.647-1.215,1.551-1.465,2.672H149.877z M167.521,56.586l1.286-8.189c-0.261-0.117-0.598-0.232-0.996-0.318
	c-0.406-0.084-0.813-0.131-1.224-0.131c-1.371,0-2.475,0.446-3.3,1.313c-0.83,0.877-1.369,2.092-1.618,3.66
	c-0.122,0.779-0.175,1.449-0.153,1.981c0.016,0.548,0.131,1.024,0.355,1.447c0.205,0.403,0.52,0.714,0.925,0.92
	c0.407,0.213,0.959,0.317,1.638,0.317c0.517,0,1.034-0.084,1.554-0.258C166.512,57.162,167.02,56.91,167.521,56.586 M172.669,60.207
	c-0.265,1.681-0.735,3.096-1.411,4.264c-0.676,1.171-1.488,2.086-2.436,2.74c-0.956,0.668-2.056,1.148-3.289,1.44
	c-1.236,0.292-2.575,0.44-4.023,0.44c-1.215,0-2.367-0.073-3.434-0.228c-1.07-0.161-1.998-0.348-2.771-0.549l0.713-4.521h0.666
	c0.274,0.11,0.589,0.226,0.953,0.352c0.371,0.134,0.735,0.253,1.112,0.359c0.455,0.115,0.896,0.214,1.323,0.291
	c0.445,0.067,0.892,0.107,1.364,0.107c0.966,0,1.797-0.094,2.479-0.295c0.667-0.195,1.202-0.479,1.592-0.846
	c0.383-0.374,0.676-0.82,0.891-1.324c0.208-0.505,0.373-1.152,0.495-1.921l0.059-0.339c-0.734,0.556-1.554,1.006-2.447,1.344
	c-0.897,0.331-1.794,0.505-2.686,0.505c-2.376,0-4.089-0.765-5.142-2.287c-1.05-1.519-1.333-3.843-0.841-6.954
	c0.218-1.412,0.626-2.687,1.195-3.811c0.576-1.124,1.277-2.087,2.109-2.879c0.8-0.766,1.713-1.354,2.737-1.764
	c1.021-0.41,2.044-0.619,3.087-0.619c0.937,0,1.75,0.117,2.46,0.351c0.707,0.245,1.337,0.556,1.879,0.947l0.342-0.798h5.535
	L172.669,60.207z M185.027,62.771c-3.47,0-6.002-0.813-7.59-2.446c-1.586-1.628-2.146-3.955-1.679-6.969
	c0.464-2.951,1.696-5.309,3.696-7.064c2.007-1.763,4.555-2.644,7.641-2.644c2.818,0,4.818,0.746,5.999,2.235
	c1.18,1.496,1.557,3.634,1.115,6.41l-0.315,2.028h-12.549c-0.077,0.837-0.009,1.538,0.212,2.099c0.212,0.564,0.549,1.01,1.003,1.346
	c0.427,0.339,0.966,0.568,1.595,0.713c0.632,0.15,1.336,0.221,2.115,0.221c0.66,0,1.333-0.07,1.999-0.221
	c0.661-0.145,1.283-0.332,1.844-0.568c0.508-0.201,0.979-0.429,1.414-0.662c0.437-0.236,0.791-0.445,1.072-0.625h0.604l-0.729,4.652
	c-0.498,0.186-0.956,0.355-1.367,0.508c-0.411,0.151-0.966,0.313-1.67,0.467c-0.648,0.17-1.308,0.295-1.98,0.387
	C186.78,62.728,185.972,62.771,185.027,62.771 M188.789,50.922c0.15-1.188,0.017-2.094-0.416-2.722
	c-0.434-0.62-1.19-0.931-2.286-0.931c-1.112,0-2.028,0.331-2.761,0.98c-0.731,0.647-1.22,1.551-1.46,2.672H188.789z M211.764,62.287
	h-5.756l1.414-8.965c0.105-0.729,0.202-1.459,0.252-2.18c0.05-0.723,0.027-1.26-0.084-1.598c-0.131-0.41-0.371-0.698-0.716-0.883
	c-0.341-0.179-0.823-0.266-1.442-0.266c-0.471,0-0.953,0.087-1.464,0.266c-0.508,0.166-1.068,0.44-1.67,0.812l-2.019,12.813h-5.712
	l2.84-18.072h5.717l-0.31,1.992c1.06-0.781,2.065-1.396,3.028-1.83c0.953-0.441,1.971-0.662,3.052-0.662
	c1.885,0,3.227,0.58,4.027,1.74c0.81,1.17,1.041,2.858,0.694,5.064L211.764,62.287z M224.297,62.771
	c-3.471,0-5.999-0.813-7.59-2.446c-1.59-1.628-2.146-3.955-1.677-6.969c0.471-2.951,1.697-5.309,3.694-7.064
	c2.006-1.763,4.55-2.644,7.646-2.644c2.818,0,4.809,0.746,5.998,2.235c1.181,1.496,1.552,3.634,1.115,6.41l-0.324,2.028h-12.543
	c-0.073,0.837-0.006,1.538,0.209,2.099c0.216,0.564,0.555,1.01,1,1.346c0.442,0.339,0.973,0.568,1.602,0.713
	c0.632,0.15,1.339,0.221,2.107,0.221c0.664,0,1.341-0.07,2.004-0.221c0.659-0.145,1.289-0.332,1.85-0.568
	c0.498-0.201,0.975-0.429,1.411-0.662c0.436-0.236,0.791-0.445,1.071-0.625h0.604l-0.731,4.652c-0.5,0.186-0.957,0.355-1.368,0.508
	c-0.404,0.151-0.966,0.313-1.669,0.467c-0.643,0.17-1.306,0.295-1.976,0.387C226.06,62.728,225.239,62.771,224.297,62.771
	 M228.056,50.922c0.153-1.188,0.019-2.094-0.414-2.722c-0.437-0.62-1.19-0.931-2.277-0.931c-1.118,0-2.036,0.331-2.766,0.98
	c-0.732,0.647-1.218,1.551-1.46,2.672H228.056z"/>
<polygon fill-rule="evenodd" clip-rule="evenodd" fill="#8AC441" points="38.306,39.451 39.767,31.282 56.392,31.282 50.327,62.593 
	39.981,62.593 44.056,39.451 "/>
<path fill-rule="evenodd" clip-rule="evenodd" fill="#8AC441" d="M51.904,17.248c2.871,0,5.22,2.346,5.22,5.226
	c0,2.875-2.349,5.227-5.22,5.227c-2.882,0-5.236-2.352-5.236-5.227C46.668,19.594,49.022,17.248,51.904,17.248"/>
<path fill-rule="evenodd" clip-rule="evenodd" fill="#21BCCC" d="M48.039,57.134c-25.55-6.122-37.342-24.065-33.781-31.157
	c3.389-6.949,13.891-9.147,29.679-5.175c-8.724-2.035-22.469-0.706-24.34,7.305C16.571,37.768,32.186,53.154,48.039,57.134"/>
<path fill-rule="evenodd" clip-rule="evenodd" fill="#21BCCC" d="M56.414,25.011c8.443,3.968,16.498,9.782,20.272,17.457
	c2.541,5.373,2.108,12.47-4.473,15.293c-4.927,2.08-10.898,2.08-17.127,1.468c11.549,2.729,20.13,2.366,25.213-1.748
	c4.924-4.938,4.18-10.929-0.309-16.968C73.451,32.702,63.908,27.43,56.414,25.011"/>
</svg>
